<svg xmlns="http://www.w3.org/2000/svg" viewBox="0 0 1600 1000" fill="none">
  <defs>
    <linearGradient id="bg" x1="0" y1="0" x2="1600" y2="1000" gradientUnits="userSpaceOnUse">
      <stop stop-color="#0f172a"/>
      <stop offset="1" stop-color="#1e293b"/>
    </linearGradient>
    <linearGradient id="amber" x1="0" y1="0" x2="1" y2="1">
      <stop stop-color="#fbbf24"/>
      <stop offset="1" stop-color="#d97706"/>
    </linearGradient>
    <linearGradient id="purple" x1="0" y1="0" x2="1" y2="1">
      <stop stop-color="#a855f7"/>
      <stop offset="1" stop-color="#7c3aed"/>
    </linearGradient>
  </defs>

  <!-- Background -->
  <rect width="1600" height="1000" fill="url(#bg)"/>

  <!-- Sidebar -->
  <rect x="0" y="0" width="280" height="1000" fill="#0f172a"/>
  <line x1="280" y1="0" x2="280" y2="1000" stroke="#1e293b"/>

  <!-- Sidebar logo -->
  <circle cx="50" cy="50" r="20" fill="url(#amber)"/>
  <text x="46" y="57" fill="#0f172a" font-family="sans-serif" font-size="22" font-weight="bold">♪</text>
  <text x="82" y="56" fill="#e2e8f0" font-family="sans-serif" font-size="18" font-weight="700">Playlister</text>

  <!-- Sidebar nav -->
  <rect x="16" y="100" width="248" height="40" rx="8" fill="#f59e0b" opacity="0.1"/>
  <text x="52" y="125" fill="#fbbf24" font-family="sans-serif" font-size="14">🏠  Home</text>
  <text x="52" y="170" fill="#94a3b8" font-family="sans-serif" font-size="14">🔍  Search</text>
  <text x="52" y="210" fill="#94a3b8" font-family="sans-serif" font-size="14">📚  Library</text>

  <line x1="24" y1="240" x2="256" y2="240" stroke="#1e293b"/>

  <!-- Playlists in sidebar -->
  <text x="24" y="275" fill="#64748b" font-family="sans-serif" font-size="12" font-weight="600" letter-spacing="1">YOUR PLAYLISTS</text>
  <text x="24" y="306" fill="#e2e8f0" font-family="sans-serif" font-size="14">🎵  Chill Vibes</text>
  <text x="24" y="336" fill="#94a3b8" font-family="sans-serif" font-size="14">🎵  Workout Mix</text>
  <text x="24" y="366" fill="#94a3b8" font-family="sans-serif" font-size="14">🎵  Late Night Code</text>
  <text x="24" y="396" fill="#94a3b8" font-family="sans-serif" font-size="14">🎵  Road Trip</text>

  <line x1="24" y1="426" x2="256" y2="426" stroke="#1e293b"/>
  <text x="24" y="460" fill="#64748b" font-family="sans-serif" font-size="12" font-weight="600" letter-spacing="1">SHARED WITH YOU</text>
  <text x="24" y="491" fill="#94a3b8" font-family="sans-serif" font-size="14">🔗  Alex's Party Mix</text>
  <text x="24" y="521" fill="#94a3b8" font-family="sans-serif" font-size="14">🔗  Study Group Jams</text>

  <!-- Main content area -->
  <!-- Playlist header -->
  <g transform="translate(320, 40)">
    <!-- Album art grid -->
    <rect x="0" y="0" width="200" height="200" rx="12" fill="#a855f7" opacity="0.3"/>
    <rect x="0" y="0" width="100" height="100" rx="0" fill="#fbbf24" opacity="0.2"/>
    <rect x="100" y="0" width="100" height="100" rx="0" fill="#22c55e" opacity="0.2"/>
    <rect x="0" y="100" width="100" height="100" rx="0" fill="#3b82f6" opacity="0.2"/>
    <rect x="100" y="100" width="100" height="100" rx="0" fill="#ef4444" opacity="0.2"/>
    <text x="100" y="110" text-anchor="middle" fill="white" font-family="sans-serif" font-size="48" opacity="0.6">♬</text>

    <!-- Playlist info -->
    <text x="230" y="24" fill="#94a3b8" font-family="sans-serif" font-size="12" font-weight="600" letter-spacing="1">PUBLIC PLAYLIST</text>
    <text x="230" y="72" fill="#e2e8f0" font-family="sans-serif" font-size="42" font-weight="800">Chill Vibes</text>
    <text x="230" y="108" fill="#94a3b8" font-family="sans-serif" font-size="15">A mix of lo-fi beats and mellow tracks for studying</text>
    <text x="230" y="140" fill="#64748b" font-family="sans-serif" font-size="13">Created by <tspan fill="#fbbf24">@brian</tspan> · 24 songs · 1hr 42min</text>

    <!-- Action buttons -->
    <circle cx="252" y="180" r="22" fill="url(#amber)"/>
    <text x="252" y="186" text-anchor="middle" fill="#0f172a" font-family="sans-serif" font-size="20">▶</text>
    <rect x="286" y="164" width="80" height="36" rx="18" fill="none" stroke="#94a3b8" stroke-width="1.5"/>
    <text x="326" y="186" text-anchor="middle" fill="#94a3b8" font-family="sans-serif" font-size="13">Share</text>
    <text x="390" y="186" fill="#64748b" font-family="sans-serif" font-size="20">⋯</text>
  </g>

  <!-- Track list -->
  <g transform="translate(320, 300)">
    <!-- Header row -->
    <text x="0" y="0" fill="#64748b" font-family="sans-serif" font-size="12">#</text>
    <text x="40" y="0" fill="#64748b" font-family="sans-serif" font-size="12">TITLE</text>
    <text x="580" y="0" fill="#64748b" font-family="sans-serif" font-size="12">ALBUM</text>
    <text x="880" y="0" fill="#64748b" font-family="sans-serif" font-size="12">ADDED BY</text>
    <text x="1080" y="0" fill="#64748b" font-family="sans-serif" font-size="12">🕐</text>
    <line x1="0" y1="14" x2="1200" y2="14" stroke="#1e293b"/>

    <!-- Currently playing track -->
    <rect x="-12" y="24" width="1220" height="56" rx="8" fill="#fbbf24" opacity="0.05"/>
    <text x="4" y="58" fill="#fbbf24" font-family="sans-serif" font-size="14">♪</text>
    <rect x="40" y="34" width="42" height="42" rx="6" fill="#a855f7" opacity="0.3"/>
    <text x="61" y="62" text-anchor="middle" fill="white" font-family="sans-serif" font-size="16" opacity="0.7">♫</text>
    <text x="96" y="52" fill="#fbbf24" font-family="sans-serif" font-size="15" font-weight="500">Midnight City</text>
    <text x="96" y="70" fill="#64748b" font-family="sans-serif" font-size="12">M83</text>
    <text x="580" y="58" fill="#94a3b8" font-family="sans-serif" font-size="13">Hurry Up, We're Dreaming</text>
    <text x="880" y="58" fill="#64748b" font-family="sans-serif" font-size="13">@brian</text>
    <text x="1080" y="58" fill="#64748b" font-family="monospace" font-size="13">4:03</text>

    <!-- Track 2 -->
    <text x="4" y="118" fill="#94a3b8" font-family="sans-serif" font-size="14">2</text>
    <rect x="40" y="94" width="42" height="42" rx="6" fill="#22c55e" opacity="0.2"/>
    <text x="96" y="112" fill="#e2e8f0" font-family="sans-serif" font-size="15" font-weight="500">Electric Feel</text>
    <text x="96" y="130" fill="#64748b" font-family="sans-serif" font-size="12">MGMT</text>
    <text x="580" y="118" fill="#94a3b8" font-family="sans-serif" font-size="13">Oracular Spectacular</text>
    <text x="880" y="118" fill="#64748b" font-family="sans-serif" font-size="13">@alex</text>
    <text x="1080" y="118" fill="#64748b" font-family="monospace" font-size="13">3:49</text>

    <!-- Track 3 -->
    <text x="4" y="178" fill="#94a3b8" font-family="sans-serif" font-size="14">3</text>
    <rect x="40" y="154" width="42" height="42" rx="6" fill="#3b82f6" opacity="0.2"/>
    <text x="96" y="172" fill="#e2e8f0" font-family="sans-serif" font-size="15" font-weight="500">Redbone</text>
    <text x="96" y="190" fill="#64748b" font-family="sans-serif" font-size="12">Childish Gambino</text>
    <text x="580" y="178" fill="#94a3b8" font-family="sans-serif" font-size="13">"Awaken, My Love!"</text>
    <text x="880" y="178" fill="#64748b" font-family="sans-serif" font-size="13">@brian</text>
    <text x="1080" y="178" fill="#64748b" font-family="monospace" font-size="13">5:26</text>

    <!-- Track 4 -->
    <text x="4" y="238" fill="#94a3b8" font-family="sans-serif" font-size="14">4</text>
    <rect x="40" y="214" width="42" height="42" rx="6" fill="#ef4444" opacity="0.2"/>
    <text x="96" y="232" fill="#e2e8f0" font-family="sans-serif" font-size="15" font-weight="500">Do I Wanna Know?</text>
    <text x="96" y="250" fill="#64748b" font-family="sans-serif" font-size="12">Arctic Monkeys</text>
    <text x="580" y="238" fill="#94a3b8" font-family="sans-serif" font-size="13">AM</text>
    <text x="880" y="238" fill="#64748b" font-family="sans-serif" font-size="13">@alex</text>
    <text x="1080" y="238" fill="#64748b" font-family="monospace" font-size="13">4:32</text>

    <!-- Track 5 -->
    <text x="4" y="298" fill="#94a3b8" font-family="sans-serif" font-size="14">5</text>
    <rect x="40" y="274" width="42" height="42" rx="6" fill="#fbbf24" opacity="0.2"/>
    <text x="96" y="292" fill="#e2e8f0" font-family="sans-serif" font-size="15" font-weight="500">Breathe Deeper</text>
    <text x="96" y="310" fill="#64748b" font-family="sans-serif" font-size="12">Tame Impala</text>
    <text x="580" y="298" fill="#94a3b8" font-family="sans-serif" font-size="13">The Slow Rush</text>
    <text x="880" y="298" fill="#64748b" font-family="sans-serif" font-size="13">@brian</text>
    <text x="1080" y="298" fill="#64748b" font-family="monospace" font-size="13">6:12</text>

    <!-- Track 6 (partial, fading) -->
    <text x="4" y="358" fill="#94a3b8" font-family="sans-serif" font-size="14" opacity="0.5">6</text>
    <rect x="40" y="334" width="42" height="42" rx="6" fill="#94a3b8" opacity="0.1"/>
    <text x="96" y="352" fill="#e2e8f0" font-family="sans-serif" font-size="15" font-weight="500" opacity="0.5">Heat Waves</text>
    <text x="96" y="370" fill="#64748b" font-family="sans-serif" font-size="12" opacity="0.5">Glass Animals</text>
  </g>

  <!-- Comments panel (right sidebar) -->
  <rect x="1240" y="300" width="320" height="400" rx="12" fill="#1a2332" stroke="#334155" stroke-width="1"/>
  <text x="1268" y="332" fill="#e2e8f0" font-family="sans-serif" font-size="15" font-weight="600">💬 Comments (12)</text>
  <line x1="1258" y1="348" x2="1542" y2="348" stroke="#334155"/>

  <circle cx="1284" cy="378" r="14" fill="#a855f7" opacity="0.3"/>
  <text x="1284" y="383" text-anchor="middle" fill="#e2e8f0" font-family="sans-serif" font-size="11" font-weight="600">A</text>
  <text x="1308" y="375" fill="#e2e8f0" font-family="sans-serif" font-size="13" font-weight="500">Alex</text>
  <text x="1440" y="375" fill="#475569" font-family="sans-serif" font-size="11">2h ago</text>
  <text x="1308" y="395" fill="#94a3b8" font-family="sans-serif" font-size="12">Great playlist! Added Electric Feel 🎶</text>

  <circle cx="1284" cy="434" r="14" fill="#fbbf24" opacity="0.3"/>
  <text x="1284" y="439" text-anchor="middle" fill="#e2e8f0" font-family="sans-serif" font-size="11" font-weight="600">B</text>
  <text x="1308" y="432" fill="#e2e8f0" font-family="sans-serif" font-size="13" font-weight="500">Brian</text>
  <text x="1440" y="432" fill="#475569" font-family="sans-serif" font-size="11">1h ago</text>
  <text x="1308" y="452" fill="#94a3b8" font-family="sans-serif" font-size="12">Nice pick! Fits the vibe perfectly 👌</text>

  <!-- Now playing bar -->
  <rect x="280" y="920" width="1320" height="80" fill="#0f172a" stroke="#1e293b" stroke-width="1"/>
  <!-- Track info -->
  <rect x="310" y="938" width="44" height="44" rx="6" fill="#a855f7" opacity="0.3"/>
  <text x="332" y="966" text-anchor="middle" fill="white" font-family="sans-serif" font-size="16" opacity="0.7">♫</text>
  <text x="368" y="954" fill="#e2e8f0" font-family="sans-serif" font-size="14" font-weight="500">Midnight City</text>
  <text x="368" y="974" fill="#64748b" font-family="sans-serif" font-size="12">M83</text>
  <!-- Controls -->
  <text x="880" y="952" text-anchor="middle" fill="#94a3b8" font-family="sans-serif" font-size="18">⏮</text>
  <circle cx="940" cy="946" r="18" fill="url(#amber)"/>
  <text x="940" y="952" text-anchor="middle" fill="#0f172a" font-family="sans-serif" font-size="16">▶</text>
  <text x="1000" y="952" text-anchor="middle" fill="#94a3b8" font-family="sans-serif" font-size="18">⏭</text>
  <!-- Progress bar -->
  <text x="760" y="978" fill="#64748b" font-family="monospace" font-size="11">1:24</text>
  <rect x="800" y="972" width="280" height="4" rx="2" fill="#334155"/>
  <rect x="800" y="972" width="98" height="4" rx="2" fill="#fbbf24"/>
  <circle cx="898" cy="974" r="6" fill="#fbbf24"/>
  <text x="1092" y="978" fill="#64748b" font-family="monospace" font-size="11">4:03</text>
  <!-- Volume -->
  <text x="1200" y="965" fill="#64748b" font-family="sans-serif" font-size="14">🔊</text>
  <rect x="1228" y="960" width="80" height="4" rx="2" fill="#334155"/>
  <rect x="1228" y="960" width="56" height="4" rx="2" fill="#94a3b8"/>
</svg>
